<svg width="14" height="14" viewBox="0 0 14 14" fill="none" xmlns="http://www.w3.org/2000/svg">
<path d="M0.474737 1.91101H13.5253C13.7874 1.91101 14 2.12358 14 2.38575V11.6142C14 11.8763 13.7874 12.0889 13.5253 12.0889H0.474737C0.212605 12.0889 0 11.8763 0 11.6142V2.38575C0 2.12362 0.212605 1.91101 0.474737 1.91101ZM0.949474 11.1395H13.0505V2.86049H0.949474V11.1395Z" fill="#009B77"/>
<path d="M11.8066 5.09681L7.24908 7.90486C7.17275 7.95192 7.08642 7.97543 7.00006 7.97543C6.91369 7.97543 6.82737 7.95192 6.75103 7.90486L2.19355 5.09681C1.97035 4.95929 1.90085 4.66681 2.03837 4.44361C2.17589 4.22041 2.46844 4.15091 2.69157 4.28847L7.00006 6.94305L11.3085 4.28847C11.5316 4.15102 11.8241 4.22037 11.9617 4.44361C12.0993 4.66678 12.0298 4.95929 11.8066 5.09681Z" fill="#009B77"/>
</svg>
