<svg width="14" height="8" fill="none" xmlns="http://www.w3.org/2000/svg"><path d="M13.926 7.214a.965.965 0 00-.048-.091c-.243-.438-.707-.975-1.392-1.611l-.014-.015-.008-.007-.007-.008h-.007a8.418 8.418 0 01-.59-.597c-.152-.195-.185-.391-.103-.59.058-.151.277-.47.656-.956.2-.257.357-.464.474-.62.84-1.117 1.205-1.831 1.093-2.142l-.043-.073c-.03-.044-.105-.084-.226-.12a1.147 1.147 0 00-.467-.018L11.145.38A.273.273 0 0011 .384l-.095.022-.036.018-.029.022a.324.324 0 00-.08.076.498.498 0 00-.073.128 11.903 11.903 0 01-.78 1.64c-.18.301-.345.562-.496.784a3.77 3.77 0 01-.379.488 2.646 2.646 0 01-.277.251c-.082.064-.145.09-.19.08a5.316 5.316 0 01-.123-.029.485.485 0 01-.164-.178.8.8 0 01-.084-.284 3.135 3.135 0 01-.022-.646c.005-.15.008-.252.008-.306 0-.184.003-.385.01-.601l.019-.514c.005-.126.007-.26.007-.4 0-.142-.009-.252-.026-.333A1.135 1.135 0 008.113.37a.393.393 0 00-.15-.175.842.842 0 00-.244-.098A4.85 4.85 0 006.735 0c-.904-.01-1.484.049-1.742.175a.982.982 0 00-.277.219c-.087.107-.1.165-.036.175.291.043.498.148.62.313l.043.087c.034.064.068.175.102.336.034.16.056.337.066.532.024.355.024.658 0 .911-.025.253-.048.45-.07.59a1.182 1.182 0 01-.186.503.126.126 0 01-.036.037.546.546 0 01-.197.036c-.068 0-.15-.034-.248-.102a1.749 1.749 0 01-.302-.28 3.752 3.752 0 01-.354-.5 8.71 8.71 0 01-.408-.758l-.116-.211a18.187 18.187 0 01-.3-.594c-.126-.26-.237-.512-.335-.755a.48.48 0 00-.174-.233L2.748.46a.774.774 0 00-.284-.11L.467.366C.263.365.124.411.05.504L.02.547A.236.236 0 000 .664c0 .054.015.12.044.197.291.685.608 1.346.951 1.983.343.636.64 1.149.893 1.538.253.388.51.755.772 1.1.263.345.437.566.522.664.085.097.152.17.2.218l.182.175c.117.117.288.256.514.42.226.162.477.322.751.48.275.158.594.287.959.387.364.1.719.14 1.064.12h.838c.17-.015.299-.068.387-.16l.029-.037a.484.484 0 00.054-.135.74.74 0 00.026-.2 2.37 2.37 0 01.047-.565c.036-.167.078-.294.124-.379a.932.932 0 01.28-.32.476.476 0 01.059-.026c.117-.039.254-.001.412.113.158.114.306.255.445.423.138.168.304.356.499.565.194.209.364.364.51.466l.146.088c.097.058.223.111.379.16.155.049.291.06.408.036l1.866-.029c.185 0 .328-.03.43-.09.102-.062.163-.128.182-.201a.564.564 0 00.004-.248.92.92 0 00-.051-.193z" fill="#009B77"/></svg>