<svg width="20" height="20" xmlns="http://www.w3.org/2000/svg"><path d="M18 17.288L16.855 4.393a.551.551 0 00-.548-.503H13.95A3.954 3.954 0 0010 0a3.954 3.954 0 00-3.95 3.89H3.692a.548.548 0 00-.548.503L2 17.288c0 .017-.004.033-.004.05C1.996 18.805 3.342 20 4.998 20h10.004c1.656 0 3.002-1.194 3.002-2.663 0-.016 0-.032-.004-.049zM10 1.104a2.85 2.85 0 012.847 2.786H7.153A2.85 2.85 0 0110 1.104zm5.002 17.792H4.998c-1.039 0-1.881-.687-1.898-1.534L4.196 4.998h1.849v1.677a.55.55 0 00.552.552.55.55 0 00.552-.552V4.998h5.698v1.677a.55.55 0 00.552.552.55.55 0 00.552-.552V4.998H15.8l1.1 12.364c-.017.847-.863 1.534-1.898 1.534z"/></svg>