<svg width="8" height="13" fill="none" xmlns="http://www.w3.org/2000/svg"><path d="M3.263 9.157C2.255 9.052 1.347 8.803.57 8.195c-.097-.076-.196-.149-.285-.233-.34-.327-.374-.702-.105-1.088.23-.33.617-.419 1.02-.229.078.037.152.083.223.132 1.45.996 3.442 1.024 4.897.045.144-.11.298-.2.477-.247a.749.749 0 01.857.342c.213.347.21.686-.052.956a3.955 3.955 0 01-1.424.92c-.509.197-1.066.297-1.617.362.083.091.123.136.175.188.748.752 1.5 1.5 2.246 2.255.254.257.307.576.167.875-.153.327-.495.542-.831.519-.213-.015-.379-.12-.526-.27-.565-.568-1.14-1.126-1.694-1.705-.161-.168-.239-.136-.38.01-.57.585-1.147 1.16-1.728 1.734-.26.257-.571.303-.873.156-.322-.156-.527-.484-.51-.814.01-.223.12-.393.273-.546.74-.74 1.48-1.482 2.218-2.223.05-.049.095-.101.166-.177z" fill="#009B77"/><path d="M3.877 6.58C2.08 6.574.605 5.084.616 3.283A3.295 3.295 0 013.916 0c1.82.005 3.28 1.493 3.271 3.333-.01 1.797-1.494 3.253-3.31 3.247zm1.634-3.293A1.603 1.603 0 003.904 1.68a1.605 1.605 0 00-1.612 1.626 1.604 1.604 0 001.62 1.595 1.6 1.6 0 001.6-1.614z" fill="#009B77"/></svg>