<svg xmlns="http://www.w3.org/2000/svg" xmlns:xlink="http://www.w3.org/1999/xlink"><defs>
<clipPath id="clip0">
<rect width="7" height="7" transform="matrix(-4.37114e-08 1 1 4.37114e-08 0 0)"/>
</clipPath>
</defs><symbol id="icon-arrow-point" viewBox="0 0 7 7">
<g clip-path="url(#clip0)">
<path d="M3.84654 5.35159L6.85633 2.34169C7.04789 2.15023 7.04789 1.8398 6.85633 1.64842C6.66494 1.45704 6.35453 1.45704 6.16316 1.64842L3.49995 4.31172L0.836834 1.6485C0.645368 1.45711 0.334987 1.45711 0.143599 1.6485C-0.0478663 1.83989 -0.0478663 2.1503 0.143599 2.34177L3.15344 5.35166C3.24918 5.44736 3.37453 5.49515 3.49993 5.49515C3.6254 5.49515 3.75084 5.44727 3.84654 5.35159Z"/>
</g>

</symbol><symbol id="icon-compare" viewBox="0 0 19 18">
<path fill-rule="evenodd" clip-rule="evenodd" d="M3.8 1.2H1.2V16.8H3.8V1.2ZM0 0V18H5V0H0Z"/>
<path fill-rule="evenodd" clip-rule="evenodd" d="M10.8 5.2H8.2V16.8H10.8V5.2ZM7 4V18H12V4H7Z"/>
<path fill-rule="evenodd" clip-rule="evenodd" d="M17.8 9.2H15.2V16.8H17.8V9.2ZM14 8V18H19V8H14Z"/>
<path fill-rule="evenodd" clip-rule="evenodd" d="M19 18H0V16.8H19V18Z"/>
</symbol><symbol id="icon-fb" viewBox="0 0 7 13">
<path d="M4.0625 4.46875V2.84375C4.0625 2.39525 4.4265 2.03125 4.875 2.03125H5.6875V0H4.0625C2.71619 0 1.625 1.09119 1.625 2.4375V4.46875H0V6.5H1.625V13H4.0625V6.5H5.6875L6.5 4.46875H4.0625Z" fill="#009B77"/>
</symbol><symbol id="icon-heart" viewBox="0 0 21 21">
<path d="M10.5 19.8317C10.201 19.8317 9.91278 19.7234 9.68816 19.5266C8.83981 18.7848 8.0219 18.0877 7.30029 17.4728L7.2966 17.4696C5.18094 15.6667 3.35398 14.1097 2.08282 12.5759C0.661856 10.8613 0 9.23557 0 7.45956C0 5.73402 0.591681 4.1421 1.66594 2.97684C2.75301 1.7978 4.24463 1.14844 5.86651 1.14844C7.07871 1.14844 8.18885 1.53168 9.16601 2.28742C9.65916 2.6689 10.1062 3.13577 10.5 3.68035C10.894 3.13577 11.3408 2.6689 11.8341 2.28742C12.8113 1.53168 13.9214 1.14844 15.1336 1.14844C16.7553 1.14844 18.2471 1.7978 19.3342 2.97684C20.4084 4.1421 21 5.73402 21 7.45956C21 9.23557 20.3383 10.8613 18.9173 12.5758C17.6461 14.1097 15.8193 15.6665 13.704 17.4693C12.9811 18.0852 12.1619 18.7834 11.3116 19.527C11.0872 19.7234 10.7988 19.8317 10.5 19.8317ZM5.86651 2.37859C4.5923 2.37859 3.42175 2.88712 2.5702 3.81061C1.70599 4.74804 1.22999 6.04388 1.22999 7.45956C1.22999 8.95326 1.78514 10.2892 3.02986 11.791C4.23293 13.2428 6.0224 14.7677 8.09432 16.5335L8.09817 16.5367C8.82251 17.154 9.64362 17.8538 10.4982 18.6011C11.3579 17.8524 12.1803 17.1514 12.9061 16.5331C14.9779 14.7674 16.7672 13.2428 17.9703 11.791C19.2148 10.2892 19.77 8.95326 19.77 7.45956C19.77 6.04388 19.294 4.74804 18.4298 3.81061C17.5784 2.88712 16.4077 2.37859 15.1336 2.37859C14.2002 2.37859 13.3432 2.67531 12.5865 3.26042C11.9121 3.78209 11.4424 4.44154 11.167 4.90297C11.0253 5.14025 10.776 5.28188 10.5 5.28188C10.2239 5.28188 9.97463 5.14025 9.833 4.90297C9.55774 4.44154 9.08799 3.78209 8.41347 3.26042C7.65677 2.67531 6.79977 2.37859 5.86651 2.37859Z"/>
</symbol><symbol id="icon-instagam" viewBox="0 0 13 13">
<path d="M9.41234 0H3.58743C1.60932 0 0 1.6094 0 3.58751V9.41241C0 11.3906 1.60932 12.9999 3.58743 12.9999H9.41234C11.3906 12.9999 12.9999 11.3905 12.9999 9.41241V3.58751C13 1.6094 11.3906 0 9.41234 0ZM11.8466 9.41241C11.8466 10.7546 10.7546 11.8465 9.41241 11.8465H3.58743C2.24532 11.8466 1.15342 10.7546 1.15342 9.41241V3.58751C1.15342 2.24539 2.24532 1.15342 3.58743 1.15342H9.41234C10.7545 1.15342 11.8465 2.24539 11.8465 3.58751V9.41241H11.8466Z" fill="#009B77"/>
<path d="M6.49996 3.15021C4.65288 3.15021 3.15021 4.65288 3.15021 6.49996C3.15021 8.34696 4.65288 9.84956 6.49996 9.84956C8.34704 9.84956 9.84971 8.34696 9.84971 6.49996C9.84971 4.65288 8.34704 3.15021 6.49996 3.15021ZM6.49996 8.69606C5.28895 8.69606 4.30362 7.71089 4.30362 6.49988C4.30362 5.28879 5.28887 4.30355 6.49996 4.30355C7.71105 4.30355 8.6963 5.28879 8.6963 6.49988C8.6963 7.71089 7.71097 8.69606 6.49996 8.69606Z" fill="#009B77"/>
<path d="M9.99024 2.17236C9.76802 2.17236 9.54972 2.26233 9.39278 2.41996C9.23507 2.57683 9.14441 2.79521 9.14441 3.0182C9.14441 3.2405 9.23514 3.45881 9.39278 3.61644C9.54964 3.7733 9.76802 3.86404 9.99024 3.86404C10.2132 3.86404 10.4308 3.7733 10.5885 3.61644C10.7461 3.45881 10.8361 3.24043 10.8361 3.0182C10.8361 2.79521 10.7461 2.57683 10.5885 2.41996C10.4316 2.26233 10.2132 2.17236 9.99024 2.17236Z" fill="#009B77"/>
</symbol><symbol id="icon-mail" viewBox="0 0 14 14">
<path d="M0.474737 1.91101H13.5253C13.7874 1.91101 14 2.12358 14 2.38575V11.6142C14 11.8763 13.7874 12.0889 13.5253 12.0889H0.474737C0.212605 12.0889 0 11.8763 0 11.6142V2.38575C0 2.12362 0.212605 1.91101 0.474737 1.91101ZM0.949474 11.1395H13.0505V2.86049H0.949474V11.1395Z" fill="#009B77"/>
<path d="M11.8066 5.09681L7.24908 7.90486C7.17275 7.95192 7.08642 7.97543 7.00006 7.97543C6.91369 7.97543 6.82737 7.95192 6.75103 7.90486L2.19355 5.09681C1.97035 4.95929 1.90085 4.66681 2.03837 4.44361C2.17589 4.22041 2.46844 4.15091 2.69157 4.28847L7.00006 6.94305L11.3085 4.28847C11.5316 4.15102 11.8241 4.22037 11.9617 4.44361C12.0993 4.66678 12.0298 4.95929 11.8066 5.09681Z" fill="#009B77"/>
</symbol><symbol id="icon-ok" viewBox="0 0 8 13">
<path d="M3.26319 9.1567C2.25538 9.05159 1.34669 8.80339 0.568716 8.19492C0.472183 8.11922 0.372519 8.04624 0.284428 7.96169C-0.0560907 7.63465 -0.0904013 7.26009 0.179046 6.8741C0.409553 6.54379 0.7965 6.45543 1.1987 6.64509C1.27658 6.68185 1.35078 6.72773 1.42185 6.77702C2.87175 7.77325 4.86353 7.80075 6.31887 6.82181C6.46306 6.71126 6.61718 6.62112 6.79582 6.57511C7.14314 6.48592 7.46705 6.6135 7.65344 6.91739C7.86639 7.26445 7.86366 7.6032 7.6013 7.87264C7.19883 8.28573 6.7148 8.58459 6.177 8.79317C5.66847 8.99032 5.11147 9.08958 4.56018 9.15548C4.64337 9.24602 4.68258 9.29054 4.73459 9.34282C5.48316 10.0949 6.235 10.8439 6.98112 11.5983C7.23532 11.8554 7.28842 12.1741 7.14845 12.4731C6.99542 12.7999 6.65285 13.0149 6.31697 12.9919C6.10416 12.9772 5.93819 12.8712 5.79073 12.7227C5.22583 12.1542 4.65031 11.5963 4.09685 11.0171C3.93578 10.8487 3.85831 10.8805 3.71617 11.0268C3.14786 11.6118 2.5703 12.1879 1.98934 12.7607C1.72847 13.0179 1.41804 13.0642 1.11551 12.9172C0.793913 12.7614 0.589275 12.4331 0.605069 12.1032C0.615961 11.88 0.7257 11.7096 0.878873 11.5567C1.61968 10.817 2.35845 10.0753 3.09749 9.33438C3.14637 9.28509 3.19198 9.23281 3.26319 9.1567Z" fill="#009B77"/>
<path d="M3.87725 6.58015C2.07935 6.57403 0.605081 5.08356 0.615565 3.2828C0.625912 1.46216 2.10113 -0.00502473 3.91673 1.2934e-05C5.73601 0.00491444 7.19625 1.4932 7.18713 3.33277C7.17787 5.12985 5.69339 6.58642 3.87725 6.58015ZM5.51122 3.28716C5.50809 2.39304 4.79601 1.68123 3.90366 1.68041C3.00382 1.67946 2.28535 2.4042 2.29229 3.30649C2.29896 4.1972 3.01717 4.90397 3.91197 4.90071C4.80404 4.89757 5.51421 4.18114 5.51122 3.28716Z" fill="#009B77"/>
</symbol><symbol id="icon-search" viewBox="0 0 16 16">
<path d="M15.125 14.225L11.4438 10.5437C12.3563 9.43125 12.9062 8.00625 12.9062 6.45312C12.9062 2.89062 10.0156 0 6.45312 0C2.8875 0 0 2.89062 0 6.45312C0 10.0156 2.8875 12.9062 6.45312 12.9062C8.00625 12.9062 9.42812 12.3594 10.5406 11.4469L14.2219 15.125C14.4719 15.375 14.875 15.375 15.125 15.125C15.375 14.8781 15.375 14.4719 15.125 14.225ZM6.45312 11.6219C3.6 11.6219 1.28125 9.30313 1.28125 6.45312C1.28125 3.60313 3.6 1.28125 6.45312 1.28125C9.30313 1.28125 11.625 3.60313 11.625 6.45312C11.625 9.30313 9.30313 11.6219 6.45312 11.6219Z"/>
</symbol><symbol id="icon-shopping-bag" viewBox="0 0 20 20">
<path d="M18 17.2883L16.8548 4.39264C16.8303 4.10634 16.589 3.88957 16.3067 3.88957H13.9509C13.9182 1.73824 12.1595 0 10 0C7.84049 0 6.0818 1.73824 6.04908 3.88957H3.69325C3.40695 3.88957 3.16973 4.10634 3.1452 4.39264L2 17.2883C2 17.3047 1.99591 17.3211 1.99591 17.3374C1.99591 18.8057 3.34151 20 4.99796 20H15.002C16.6585 20 18.0041 18.8057 18.0041 17.3374C18.0041 17.3211 18.0041 17.3047 18 17.2883ZM10 1.10429C11.5501 1.10429 12.8139 2.34765 12.8466 3.88957H7.15337C7.18609 2.34765 8.4499 1.10429 10 1.10429ZM15.002 18.8957H4.99796C3.9591 18.8957 3.11657 18.2086 3.10021 17.362L4.19632 4.99795H6.04499V6.67485C6.04499 6.9816 6.29039 7.22699 6.59714 7.22699C6.90389 7.22699 7.14928 6.9816 7.14928 6.67485V4.99795H12.8466V6.67485C12.8466 6.9816 13.092 7.22699 13.3988 7.22699C13.7055 7.22699 13.9509 6.9816 13.9509 6.67485V4.99795H15.7996L16.8998 17.362C16.8834 18.2086 16.0368 18.8957 15.002 18.8957Z"/>
</symbol><symbol id="icon-user" viewBox="0 0 20 20">
<path d="M18.3372 18.7474H1.66341C1.55174 18.7474 1.44465 18.703 1.36569 18.624C1.28673 18.5451 1.24246 18.438 1.24246 18.3263C1.25299 18.1158 1.31615 16.2526 2.29509 15.2632C2.75825 14.8 3.70554 14.3158 5.10554 13.6105C6.60027 12.8632 7.43194 12.4211 7.82141 12.0526L8.66344 11.2526L7.92665 10.3579C7.04667 9.36562 6.45652 8.15046 6.22075 6.84533C5.98497 5.54019 6.11261 4.19534 6.58978 2.95789C7.16873 1.82105 8.30556 1.25263 10.0003 1.25263C11.6845 1.25263 12.8424 1.82105 13.4108 2.95789C13.888 4.19534 14.0156 5.54019 13.7799 6.84533C13.5441 8.15046 12.9539 9.36562 12.074 10.3579L11.3372 11.2632L12.1792 12.0526C12.5687 12.4211 13.4003 12.8632 14.8951 13.6105C15.8994 14.0377 16.844 14.5932 17.7055 15.2632C18.5055 16.0632 18.7371 17.5684 18.7581 18.3263C18.7581 18.438 18.7139 18.5451 18.6349 18.624C18.5559 18.703 18.4489 18.7474 18.3372 18.7474ZM15.453 12.4947C14.6635 12.0947 13.3582 11.4421 13.0424 11.1474C14.3687 9.51579 15.1477 7.67369 15.1477 6.06316C15.1477 4.96842 15.1477 3.61053 14.5267 2.4C13.9793 1.30526 12.7371 0 10.0003 0C7.26346 0 6.0213 1.30526 5.47393 2.4C4.86341 3.61053 4.86345 4.96842 4.86345 6.06316C4.86345 7.67369 5.63186 9.51579 6.95818 11.1474C6.64239 11.4421 5.33709 12.0947 4.54761 12.4947C2.98972 13.2737 2.01079 13.7895 1.41079 14.379C0.105527 15.6842 0.010826 17.8842 0.00029969 18.3053C-0.00389826 18.5263 0.0360442 18.746 0.117744 18.9514C0.199444 19.1569 0.321258 19.344 0.476117 19.5018C0.630975 19.6596 0.815781 19.7849 1.01965 19.8704C1.22352 19.956 1.44232 20 1.66341 20H18.3372C18.557 19.9986 18.7743 19.954 18.9768 19.8686C19.1794 19.7832 19.3631 19.6588 19.5175 19.5024C19.672 19.346 19.7941 19.1607 19.8769 18.9571C19.9598 18.7535 20.0017 18.5356 20.0003 18.3158C20.0003 17.8842 19.8951 15.6842 18.5898 14.379C18.0003 13.7895 17.0109 13.2737 15.453 12.4842V12.4947Z"/>
</symbol><symbol id="icon-vk" viewBox="0 0 14 8">
<path d="M13.9258 7.21369C13.9088 7.17716 13.893 7.14685 13.8783 7.12257C13.6354 6.6851 13.1712 6.14814 12.4861 5.51153L12.4716 5.49696L12.4643 5.48981L12.457 5.48248H12.4497C12.1387 5.18604 11.9418 4.98673 11.8593 4.88468C11.7084 4.69029 11.6746 4.49352 11.7571 4.29415C11.8154 4.14352 12.0342 3.82541 12.4131 3.33938C12.6125 3.0818 12.7703 2.87536 12.8869 2.71983C13.7276 1.60209 14.0921 0.887846 13.9803 0.576806L13.9369 0.50412C13.9077 0.46036 13.8324 0.420328 13.711 0.383819C13.5894 0.347387 13.434 0.341362 13.2444 0.365641L11.1452 0.380143C11.1111 0.368092 11.0626 0.369215 10.9993 0.383819C10.9361 0.398423 10.9045 0.40575 10.9045 0.40575L10.868 0.424004L10.839 0.445935C10.8147 0.460437 10.788 0.485942 10.7588 0.5224C10.7297 0.55873 10.7055 0.601366 10.6861 0.649951C10.4575 1.23795 10.1977 1.78464 9.90602 2.28999C9.7262 2.59133 9.56107 2.85249 9.41026 3.07361C9.25966 3.29465 9.13331 3.45751 9.03134 3.56191C8.92921 3.6664 8.83705 3.75012 8.75428 3.81336C8.67163 3.87662 8.60855 3.90336 8.56486 3.89358C8.52108 3.8838 8.47985 3.8741 8.44081 3.86439C8.37282 3.82064 8.31814 3.76112 8.2769 3.68581C8.23549 3.61049 8.20761 3.5157 8.19304 3.4015C8.17853 3.28722 8.16996 3.18893 8.1675 3.10629C8.16523 3.02375 8.16628 2.90699 8.17121 2.75636C8.17626 2.60565 8.17853 2.50369 8.17853 2.45022C8.17853 2.26553 8.18213 2.06509 8.18936 1.84885C8.19671 1.6326 8.20266 1.46127 8.20764 1.33504C8.21259 1.20869 8.21489 1.07501 8.21489 0.934083C8.21489 0.793153 8.20631 0.68263 8.18936 0.602413C8.17261 0.522298 8.1469 0.444531 8.11302 0.369139C8.07894 0.293823 8.02905 0.235562 7.96359 0.194203C7.898 0.152894 7.81646 0.120112 7.71941 0.0957561C7.46184 0.0374695 7.13384 0.00593905 6.73528 0.00103715C5.83147 -0.00866452 5.25072 0.0496986 4.99317 0.17605C4.89112 0.229435 4.79878 0.302376 4.71621 0.394644C4.62872 0.501592 4.61651 0.559956 4.67968 0.569555C4.97129 0.613238 5.17773 0.717735 5.29923 0.882944L5.34302 0.970489C5.37707 1.03365 5.41108 1.14548 5.44511 1.30581C5.47909 1.46614 5.50103 1.6435 5.51068 1.83779C5.53493 2.19259 5.53493 2.49631 5.51068 2.74896C5.48635 3.00171 5.46337 3.19848 5.44144 3.33941C5.41951 3.48034 5.38672 3.59454 5.34302 3.68198C5.29923 3.76945 5.2701 3.82291 5.2555 3.84231C5.24092 3.86171 5.22877 3.87394 5.21912 3.87874C5.15595 3.90295 5.09026 3.91528 5.02227 3.91528C4.95418 3.91528 4.87162 3.88122 4.77445 3.81316C4.6773 3.74509 4.57648 3.6516 4.47198 3.53252C4.36749 3.41342 4.24964 3.24699 4.11838 3.03319C3.98723 2.8194 3.85115 2.56672 3.71023 2.27516L3.59363 2.06371C3.52074 1.92769 3.42117 1.72962 3.29481 1.46969C3.16839 1.20966 3.05664 0.958132 2.95949 0.715156C2.92066 0.61311 2.86232 0.535421 2.78458 0.481959L2.7481 0.460028C2.72385 0.440625 2.68491 0.420022 2.6315 0.398065C2.57801 0.376134 2.5222 0.360407 2.46384 0.350731L0.466599 0.365233C0.262507 0.365233 0.124028 0.411469 0.0511125 0.503813L0.0219309 0.547496C0.00735285 0.571827 0 0.610685 0 0.664172C0 0.717633 0.014578 0.783247 0.0437596 0.860937C0.33532 1.54618 0.652386 2.20704 0.994957 2.84363C1.33753 3.48021 1.63522 3.99299 1.88784 4.38152C2.14052 4.77033 2.39807 5.13728 2.6605 5.4822C2.92293 5.82725 3.09665 6.04837 3.18164 6.14551C3.26673 6.24284 3.33357 6.3156 3.38216 6.36418L3.56442 6.53909C3.68104 6.65574 3.8523 6.79545 4.07828 6.95821C4.3043 7.12107 4.55453 7.2814 4.82908 7.43946C5.10369 7.59727 5.42316 7.72604 5.78766 7.82564C6.15211 7.92534 6.50683 7.96534 6.85188 7.94604H7.69016C7.86017 7.93136 7.98897 7.8779 8.07651 7.78563L8.10552 7.7491C8.12502 7.72009 8.14328 7.67503 8.16013 7.6144C8.17718 7.55366 8.18566 7.48674 8.18566 7.41396C8.18068 7.20504 8.19658 7.01675 8.23294 6.84911C8.26927 6.68153 8.31068 6.55518 8.35699 6.47009C8.40328 6.38507 8.45552 6.31333 8.51365 6.25517C8.57191 6.19688 8.61342 6.16157 8.63778 6.14942C8.66198 6.13719 8.68131 6.12889 8.69589 6.12391C8.81251 6.08506 8.94977 6.12269 9.10785 6.23699C9.26581 6.35119 9.41396 6.49219 9.55255 6.65978C9.69105 6.82751 9.85746 7.0157 10.0518 7.22462C10.2463 7.43361 10.4163 7.58897 10.562 7.69117L10.7078 7.77864C10.8051 7.837 10.9314 7.89046 11.087 7.93905C11.2422 7.98761 11.3782 7.99976 11.495 7.97548L13.361 7.94637C13.5456 7.94637 13.6892 7.91581 13.7911 7.85518C13.8931 7.79444 13.9538 7.72752 13.9733 7.65474C13.9928 7.58187 13.9939 7.4992 13.977 7.40678C13.9597 7.31459 13.9427 7.25012 13.9258 7.21369Z" fill="#009B77"/>
</symbol><symbol id="icon-youtube" viewBox="0 0 13 10">
<path d="M12.4933 0.785368C12.024 0.227542 11.1576 0 9.50304 0H3.49683C1.80436 0 0.923294 0.24222 0.455797 0.83611C0 1.41516 0 2.26833 0 3.44915V5.69979C0 7.98741 0.5408 9.1489 3.49683 9.1489H9.50308C10.9379 9.1489 11.733 8.94811 12.2474 8.45583C12.7749 7.95101 13 7.12677 13 5.69979V3.44915C13 2.20388 12.9647 1.34567 12.4933 0.785368ZM8.34604 4.88519L5.61864 6.31062C5.55767 6.34249 5.49099 6.3583 5.4244 6.3583C5.349 6.3583 5.27376 6.338 5.20713 6.29766C5.08166 6.22163 5.00504 6.08564 5.00504 5.93895V3.09723C5.00504 2.95079 5.08145 2.81492 5.20667 2.73885C5.33193 2.66278 5.48772 2.65758 5.61768 2.72509L8.34508 4.14134C8.48384 4.21338 8.57098 4.35664 8.57119 4.51293C8.57136 4.66935 8.4846 4.81281 8.34604 4.88519Z" fill="#009B77"/>
</symbol></svg>